<?xml version="1.0" encoding="UTF-8"?><svg id="a" xmlns="http://www.w3.org/2000/svg" viewBox="0 0 384 448"><defs><style>.b{fill:#fff;}</style></defs><path class="b" d="M297.4,137.4l-73.4,73.4V32c0-17.69-14.31-32-32-32s-32,14.31-32,32V210.8l-73.37-73.4c-6.25-6.3-14.44-9.4-22.63-9.4s-16.37,3.1-22.62,9.4c-12.5,12.5-12.5,32.75,0,45.25l128,128c12.5,12.5,32.75,12.5,45.25,0l128-128c12.5-12.5,12.5-32.75,0-45.25s-32.73-12.5-45.23,0Zm54.6,246.6H32c-17.69,0-32,14.31-32,32s14.31,32,32,32H352c17.69,0,32-14.31,32-32s-14.3-32-32-32Z"/></svg>