<?xml version="1.0" encoding="UTF-8"?><svg id="a" xmlns="http://www.w3.org/2000/svg" viewBox="0 0 512 512"><defs><style>.b{fill:#fff;}</style></defs><path class="b" d="M311.3,136.4l-79.1,92.3-29.7-29.7c-9.38-9.38-24.56-9.38-33.94,0s-9.38,24.56,0,33.94l48,48c4.5,4.5,10.62,7.03,16.97,7.03,.31,0,.62,0,.91-.03,6.66-.24,12.96-3.24,17.26-8.34l96-112c8.62-10.06,7.47-25.22-2.59-33.84-10.01-8.56-25.21-7.46-33.81,2.64ZM447.1,0H63.1C27.85,0-.9,28.75-.9,63.1V350.2c0,35.25,28.75,63.1,64,63.1h96v83.1c0,9.84,11.02,15.55,19.12,9.7l124.9-93.7h144c35.25,0,64-28.75,64-63.1V63.1C511.1,28.75,483.2,0,447.1,0Zm16.9,352c0,8.75-7.25,16-16,16h-160l-80,60v-60H64c-8.75,0-16-7.25-16-16V64c0-8.75,7.25-16,16-16H448c8.75,0,16,7.25,16,16V352Z"/></svg>