<?xml version="1.0" encoding="UTF-8"?><svg id="a" xmlns="http://www.w3.org/2000/svg" viewBox="0 0 512 512"><defs><style>.b{fill:#de1738;}</style></defs><path class="b" d="M480.3,320.3l-98.2-42.1c-21.41-9.28-46.64-3.11-61.2,14.95l-27.44,33.5c-44.78-25.75-82.29-63.25-108-107.1l33.55-27.48c17.91-14.62,24.09-39.7,15.02-61.05L191.7,31.53C181.54,8.33,156.36-4.33,131.83,1.34L40.58,22.4C16.7,27.86,0,48.83,0,73.39c0,241.9,196.7,438.6,438.6,438.6,24.56,0,45.53-16.69,50.1-40.53l21.06-91.34c6.64-24.62-6.16-49.82-29.46-59.82Zm-16.4,49l-21.09,91.41c-.47,1.1-2.11,3.28-4.22,3.28-215.4,0-390.6-175.2-390.6-390.6,0-2.09,1.3-3.73,3.34-4.2l91.34-21.08c.31-.08,.64-.11,.95-.11,1.73,0,3.36,1.05,4.05,2.61l42.14,98.33c.75,1.77,.25,3.83-1.25,5.06l-48.77,39.1c-8.62,7.06-11.25,19.14-6.34,29.14,33.01,67.23,88.26,122.5,155.5,155.5,9.1,4.91,22.09,2.28,29.16-6.34l40.01-48.87c1.11-1.41,3.19-1.94,4.92-1.12l98.26,42.09c1.89,1.71,2.99,3.81,2.59,5.81Z"/></svg>