<?xml version="1.0" encoding="UTF-8"?><svg id="a" xmlns="http://www.w3.org/2000/svg" viewBox="0 0 512.39 448"><defs><style>.b{fill:#fff;}</style></defs><path class="b" d="M506.67,385L293.37,21c-8.2-14-22.6-21-37-21s-28.8,7-37.9,21L5.27,385c-15.49,27.9,4.95,63,37.84,63H469.71c32.76,0,53.26-35,36.96-63Zm-453.72,15L255.47,52.8l204.3,347.2H52.95Zm203.42-94.9c-17.36,0-31.44,14.08-31.44,31.44s14.11,31.44,31.48,31.44,31.4-14.08,31.4-31.44c-.04-17.34-14.04-31.44-31.44-31.44Zm-24-153.1v96c0,13.3,10.8,24,24,24s24-10.75,24-24v-96c0-13.2-10.7-24-24-24s-24,10.8-24,24Z"/></svg>