<?xml version="1.0" encoding="UTF-8"?><svg id="a" xmlns="http://www.w3.org/2000/svg" viewBox="0 0 88.94 84.68"><defs><style>.b{fill:#ec0a3c;fill-rule:evenodd;}</style></defs><path class="b" d="M6.07,0c3.11,0,4.97,3.32,4.97,3.32,1.27,7.25,5.15,10.57,11.6,9.94,1.24,5,11.22,9.55,14.92,6.63,1.88-1.48,1.44-9.85,1.66-9.94,.83-.39,4.45,15.14,4.88,1.13,0-.32,.21-.43,.27-.11,1.83,9.02,8.86-.87,8.12,7.27,8.22-6.78,13.58-6.23,18.23-16.57,2.73,7.74-11.28,12.99-14.92,19.89,.71,3.7,8.16,.67,11.6,1.66-13.88-4.66-1.32-.33,3.32-6.63-1.15-4.13-4.42,3.08-8.29,1.66,3.2-3.47,18.63-8.98,21.54-18.25,3.08,5.91-9.66,10.19-11.61,16.58,3.75,1.38,11.15-1.93,14.92-8.28,2.8,10.02-12.59,16.12-23.2,18.23,6.57,4.84,16.72-5.87,24.86-1.65-10.64,6.81-1.48,15.47-20.3,9.51,4.59-1.95,6.5-3,11.59-3.1-9.39-2.34-23.33,.61-27.75-3.1,.36,7.38,8.38,6.54,11.91,10.75,19.84-4.63-8.51,8.72-13.57-2.46-3.5-4.06,1.74,2.47,4.97,1.65-.34-6.3-6.97-6.29-6.63-13.26-4.86,1.41,1.43,5.52,0,8.29-8.12,15.68-7.36,43.76-22.83,51.23-.18,.09-.68,.42-.92,.24-.19-.15-.14-.78-.14-1.07,.09-4.69,2.5-12.63,8.14-14.08,.6-.15,1.46-.16,1.85-.16,6.84-13.6,8.51-21.23,10.59-39.48-1.28,11.2-35.46,8.27-44.75-11.6-2.38-5.08-.26-3.26,.51-5.55,4.99,6.4,22.36,11.08,26,10.52C22.73,20.43-3.08,14.59,6.07,0"/></svg>