<?xml version="1.0" encoding="UTF-8"?><svg id="a" xmlns="http://www.w3.org/2000/svg" viewBox="0 0 173.51 165.2"><defs><style>.b{fill-rule:evenodd;}</style></defs><path class="b" d="M11.84,0c6.06,0,9.7,6.48,9.7,6.48,2.49,14.15,10.04,20.62,22.63,19.4,2.42,9.75,21.89,18.62,29.1,12.94,3.67-2.89,2.8-19.21,3.24-19.4,1.63-.76,8.68,29.54,9.51,2.2,.02-.63,.41-.84,.52-.22,3.58,17.59,17.28-1.69,15.84,14.18,16.03-13.22,26.49-12.15,35.57-32.33,5.32,15.1-22.01,25.34-29.1,38.8,1.39,7.23,15.93,1.31,22.63,3.23-27.08-9.1-2.57-.65,6.47-12.94-2.24-8.06-8.62,6-16.17,3.24C128.04,28.84,158.14,18.08,163.82,0c6.01,11.53-18.85,19.89-22.64,32.34,7.32,2.69,21.75-3.76,29.1-16.16,5.47,19.54-24.55,31.45-45.27,35.57,12.81,9.44,32.62-11.44,48.5-3.23-20.76,13.29-2.88,30.18-39.61,18.54,8.96-3.8,12.69-5.86,22.6-6.04-18.33-4.56-45.52,1.2-54.13-6.04,.7,14.39,16.35,12.77,23.24,20.97,38.71-9.04-16.6,17.01-26.47-4.8-6.83-7.92,3.4,4.82,9.7,3.23-.66-12.29-13.6-12.26-12.94-25.86-9.47,2.74,2.8,10.78,0,16.17-15.84,30.6-14.35,85.37-44.53,99.94-.36,.18-1.33,.83-1.79,.47-.38-.3-.28-1.52-.27-2.09,.18-9.15,4.88-24.64,15.87-27.47,1.17-.3,2.85-.32,3.61-.3,13.34-26.54,16.6-41.42,20.65-77.02-2.49,21.84-69.18,16.14-87.31-22.64-4.64-9.91-.52-6.36,1-10.83,9.73,12.49,43.62,21.61,50.73,20.53C44.35,39.85-6.02,28.46,11.84,0"/></svg>