<svg id="Ebene_1" data-name="Ebene 1" xmlns="http://www.w3.org/2000/svg" viewBox="0 0 305.19 83.23"><defs><style>.cls-1,.cls-3{fill:#ec0a3c;}.cls-1{fill-rule:evenodd;}.cls-2{fill:#323232;}.cls-4{fill:#fff;}</style></defs><path class="cls-1" d="M6,0C9,0,10.85,3.27,10.85,3.27Q12.74,14,22.26,13c1.22,4.91,11,9.38,14.65,6.52,1.86-1.46,1.42-9.68,1.64-9.78.82-.38,4.37,14.89,4.79,1.11,0-.32.2-.42.26-.11,1.8,8.86,8.71-.85,8,7.14C59.65,11.26,64.93,11.8,69.5,1.64c2.68,7.6-11.09,12.76-14.66,19.54.7,3.64,8,.66,11.4,1.63-13.65-4.58-1.3-.32,3.26-6.52-1.13-4.06-4.35,3-8.15,1.63C64.51,14.53,79.67,9.11,82.53,0c3,5.81-9.49,10-11.41,16.29,3.69,1.36,11-1.89,14.67-8.14C88.54,18,73.42,24,63,26.07c6.46,4.75,16.43-5.77,24.43-1.63C77,31.14,86,39.65,67.46,33.78c4.51-1.91,6.39-3,11.39-3-9.24-2.3-22.93.6-27.27-3,.35,7.25,8.23,6.43,11.71,10.56,19.5-4.55-8.37,8.57-13.34-2.42-3.44-4,1.71,2.44,4.89,1.63-.33-6.19-6.86-6.18-6.52-13-4.78,1.38,1.41,5.43,0,8.15-8,15.41-7.24,43-22.44,50.35-.18.08-.67.41-.9.24s-.14-.77-.14-1.06c.09-4.61,2.46-12.41,8-13.84a7.74,7.74,0,0,1,1.82-.15c6.72-13.37,8.36-20.87,10.4-38.8-1.25,11-34.85,8.13-44-11.41-2.34-5-.26-3.2.5-5.45,4.91,6.29,22,10.88,25.56,10.34C22.34,20.08-3,14.34,6,0"/><path class="cls-2" d="M115.06,13.09a12.56,12.56,0,0,1-.68,4.16,9.22,9.22,0,0,1-5.23,5.61,11.08,11.08,0,0,1-4.41.82h-4V2.29h4a11.69,11.69,0,0,1,4.54.81,8.86,8.86,0,0,1,3.23,2.25,9.26,9.26,0,0,1,1.92,3.42A14.18,14.18,0,0,1,115.06,13.09Zm-2.85,0a11.78,11.78,0,0,0-.48-3.42,8,8,0,0,0-1.42-2.74A6.55,6.55,0,0,0,108,5.11a7.5,7.5,0,0,0-3.24-.66h-1.38v17h1.38a7.65,7.65,0,0,0,3.24-.64A6.53,6.53,0,0,0,110.31,19a7.8,7.8,0,0,0,1.42-2.66A10.86,10.86,0,0,0,112.21,13.09Z"/><path class="cls-2" d="M132.81,4.48h-8.19V11.2h6.78L131,13.45h-6.42v7.92h8.61l-.33,2.31H122V2.26l11.22,0Z"/><path class="cls-2" d="M153.58,17.5a7.22,7.22,0,0,1-.48,2.7,5.69,5.69,0,0,1-1.37,2,6,6,0,0,1-2.14,1.29,8.34,8.34,0,0,1-2.82.45,8.79,8.79,0,0,1-2.76-.41,6,6,0,0,1-2.12-1.18,5.25,5.25,0,0,1-1.36-1.91,6.54,6.54,0,0,1-.48-2.59V2.29h2.67V17.56a4.22,4.22,0,0,0,1.08,3.1,4,4,0,0,0,3,1.1,4.2,4.2,0,0,0,3-1.08,4,4,0,0,0,1.13-3.06V2.29h2.64V17.5Z"/><path class="cls-2" d="M174,4.6h-5.79V23.68h-2.7V4.6h-5.76V2.29h14.46Z"/><path class="cls-2" d="M190.91,6.22a11.63,11.63,0,0,0-2.23-1.41,5.76,5.76,0,0,0-2.51-.57,4.54,4.54,0,0,0-1.3.18,3.07,3.07,0,0,0-1.08.55,2.68,2.68,0,0,0-.74,1,3.05,3.05,0,0,0-.27,1.32,3,3,0,0,0,.33,1.42A4.44,4.44,0,0,0,184,9.79a8.75,8.75,0,0,0,1.2.94c.44.29.89.58,1.35.86l2.06,1.29a11.37,11.37,0,0,1,1.78,1.38A5.89,5.89,0,0,1,191.62,16a5.46,5.46,0,0,1,.46,2.36,5.64,5.64,0,0,1-.48,2.35,5.26,5.26,0,0,1-1.33,1.82,6.25,6.25,0,0,1-2,1.17,7.4,7.4,0,0,1-2.52.42,10.15,10.15,0,0,1-2.14-.21,9.16,9.16,0,0,1-1.79-.57,10.68,10.68,0,0,1-1.5-.81,12.7,12.7,0,0,1-1.29-1l1.62-2.1c.32.28.67.56,1,.84a10.32,10.32,0,0,0,1.2.78,6.89,6.89,0,0,0,1.39.58,5.61,5.61,0,0,0,1.62.23A3.45,3.45,0,0,0,188.3,21a3,3,0,0,0,1-2.32,3.34,3.34,0,0,0-.39-1.64,4.57,4.57,0,0,0-1-1.26,10.33,10.33,0,0,0-1.47-1l-1.67-1c-.58-.36-1.15-.74-1.71-1.13a9.11,9.11,0,0,1-1.51-1.32,6.18,6.18,0,0,1-1.1-1.68,5.36,5.36,0,0,1-.42-2.2,5,5,0,0,1,.53-2.31,5.53,5.53,0,0,1,1.36-1.73,5.8,5.8,0,0,1,1.92-1.06A7,7,0,0,1,186,2a9.43,9.43,0,0,1,3.56.66,11.77,11.77,0,0,1,2.89,1.65Z"/><path class="cls-2" d="M210.83,6.49a5.73,5.73,0,0,0-1.76-1.64,4.74,4.74,0,0,0-2.47-.61,3.55,3.55,0,0,0-2.27.75,5.56,5.56,0,0,0-1.54,2,10.62,10.62,0,0,0-.87,2.87,20.6,20.6,0,0,0-.27,3.39,19.34,19.34,0,0,0,.27,3.3,9.38,9.38,0,0,0,.88,2.74,5.28,5.28,0,0,0,1.58,1.89,3.85,3.85,0,0,0,2.34.71,4.8,4.8,0,0,0,2.41-.54,11.53,11.53,0,0,0,1.76-1.23l1.77,1.77a8.07,8.07,0,0,1-2.46,1.57,8.75,8.75,0,0,1-3.48.65,7.61,7.61,0,0,1-3.66-.83A6.81,6.81,0,0,1,200.57,21a10.31,10.31,0,0,1-1.41-3.43,19.49,19.49,0,0,1-.45-4.32,18.27,18.27,0,0,1,.52-4.52,11.22,11.22,0,0,1,1.53-3.54,7.31,7.31,0,0,1,2.51-2.32A6.94,6.94,0,0,1,206.72,2a7.43,7.43,0,0,1,3.63.84A8.29,8.29,0,0,1,212.9,5Z"/><path class="cls-2" d="M231.38,23.68V13.48h-9.51v10.2h-2.64V2.26h2.67v9.06h9.48V2.26H234V23.68Z"/><path class="cls-2" d="M252.94,4.48h-8.19V11.2h6.78l-.36,2.25h-6.42v7.92h8.61L253,23.68H242.17V2.26l11.22,0Z"/><path class="cls-2" d="M137.37,42.67a12.56,12.56,0,0,1-.68,4.16,9.22,9.22,0,0,1-5.23,5.61,11.08,11.08,0,0,1-4.41.82h-4V31.87h4a11.69,11.69,0,0,1,4.54.81,8.86,8.86,0,0,1,3.23,2.25,9.26,9.26,0,0,1,1.92,3.42A14.18,14.18,0,0,1,137.37,42.67Zm-2.85,0a11.78,11.78,0,0,0-.48-3.42,8,8,0,0,0-1.42-2.74,6.55,6.55,0,0,0-2.33-1.82,7.53,7.53,0,0,0-3.24-.66h-1.38V51h1.38a7.68,7.68,0,0,0,3.24-.64,6.53,6.53,0,0,0,2.33-1.77A7.8,7.8,0,0,0,134,45.94,10.86,10.86,0,0,0,134.52,42.67Z"/><path class="cls-2" d="M144.4,53.26V31.87H147V53.26Z"/><path class="cls-2" d="M167.35,35.8a7.78,7.78,0,0,0-2.14-1.53,6.07,6.07,0,0,0-2.66-.57,3.85,3.85,0,0,0-2.34.71,5.29,5.29,0,0,0-1.57,1.9,9.62,9.62,0,0,0-.89,2.76,19.34,19.34,0,0,0-.27,3.3,22.13,22.13,0,0,0,.26,3.41,10.77,10.77,0,0,0,.84,2.89,5.34,5.34,0,0,0,1.54,2,3.73,3.73,0,0,0,2.37.75,16.21,16.21,0,0,0,2-.12,11.07,11.07,0,0,0,1.77-.36V43.06h-4.08l.36-2.1h6.24V52A10.27,10.27,0,0,1,166,53.14a13.29,13.29,0,0,1-3.51.45,6.8,6.8,0,0,1-6.09-3.24A10.81,10.81,0,0,1,155,46.8a20.72,20.72,0,0,1-.45-4.43,16.94,16.94,0,0,1,.53-4.35,10.72,10.72,0,0,1,1.53-3.42,6.95,6.95,0,0,1,6-3.06,9.32,9.32,0,0,1,3.77.71,8.93,8.93,0,0,1,2.83,2Z"/><path class="cls-2" d="M176.78,53.26V31.87h2.61V53.26Z"/><path class="cls-2" d="M199.85,34.18h-5.79V53.26h-2.7V34.18H185.6V31.87h14.46Z"/><path class="cls-2" d="M216.11,53.26l-1.59-5.91H206.6l-1.74,5.91H202l6.93-21.39h3.84l6.12,21.39Zm-5-19.38h-.54l-3.33,11.34H214Z"/><path class="cls-2" d="M235.78,53.26H225.25V31.87h2.58V51H236Z"/><path class="cls-2" d="M252.94,34.06h-8.19v6.72h6.78L251.17,43h-6.42V51h8.61L253,53.26H242.17V31.84l11.22,0Z"/><path class="cls-2" d="M91.79,76.67a6.26,6.26,0,0,1-.51,2.56,5.46,5.46,0,0,1-1.45,2,6.63,6.63,0,0,1-2.25,1.24,9.14,9.14,0,0,1-2.9.44H79.1V61.49h5.16a11.24,11.24,0,0,1,2.87.34,6.5,6.5,0,0,1,2.22,1,4.64,4.64,0,0,1,1.93,3.89,4.32,4.32,0,0,1-.93,2.82A6,6,0,0,1,88,71.3a5.9,5.9,0,0,1,2.75,2A5.44,5.44,0,0,1,91.79,76.67ZM88.52,67a3,3,0,0,0-1.18-2.6,5.29,5.29,0,0,0-3.08-.82H81.65V70.4h2.79a4.41,4.41,0,0,0,3-1A3.15,3.15,0,0,0,88.52,67ZM89,76.67a4.1,4.1,0,0,0-1.24-3.09,4.59,4.59,0,0,0-3.32-1.2H81.65v8.4h3a4.22,4.22,0,0,0,3.23-1.14A4.17,4.17,0,0,0,89,76.67Z"/><path class="cls-2" d="M98.79,82.88V61.49h2.61V82.88Z"/><path class="cls-2" d="M122.26,76.67a6.26,6.26,0,0,1-.51,2.56,5.46,5.46,0,0,1-1.45,2,6.63,6.63,0,0,1-2.25,1.24,9.14,9.14,0,0,1-2.9.44h-5.58V61.49h5.16a11.24,11.24,0,0,1,2.87.34,6.5,6.5,0,0,1,2.22,1,4.64,4.64,0,0,1,1.93,3.89,4.32,4.32,0,0,1-.93,2.82,6,6,0,0,1-2.34,1.74,5.9,5.9,0,0,1,2.75,2A5.44,5.44,0,0,1,122.26,76.67ZM119,67a3,3,0,0,0-1.19-2.6,5.25,5.25,0,0,0-3.07-.82h-2.61V70.4h2.79a4.42,4.42,0,0,0,3-1A3.19,3.19,0,0,0,119,67Zm.45,9.72a4.11,4.11,0,0,0-1.25-3.09,4.58,4.58,0,0,0-3.31-1.2h-2.76v8.4h3a3.84,3.84,0,0,0,4.29-4.11Z"/><path class="cls-2" d="M139.81,82.88H129.28V61.49h2.58V80.66H140Z"/><path class="cls-2" d="M146.2,82.88V61.49h2.61V82.88Z"/><path class="cls-2" d="M172.51,72.14a18.56,18.56,0,0,1-.48,4.32A10.71,10.71,0,0,1,170.55,80,7.5,7.5,0,0,1,168,82.34a7.1,7.1,0,0,1-3.59.87,7.78,7.78,0,0,1-3.63-.8,6.8,6.8,0,0,1-2.52-2.25,10.39,10.39,0,0,1-1.47-3.48,19.56,19.56,0,0,1-.48-4.51,18.29,18.29,0,0,1,.5-4.38,11,11,0,0,1,1.48-3.5A7.09,7.09,0,0,1,160.84,62a7.37,7.37,0,0,1,3.6-.84,7.22,7.22,0,0,1,3.63.87,7.32,7.32,0,0,1,2.52,2.37,10.67,10.67,0,0,1,1.46,3.49A18.85,18.85,0,0,1,172.51,72.14Zm-2.94,0a18.19,18.19,0,0,0-.31-3.44,10.94,10.94,0,0,0-.94-2.88,5.59,5.59,0,0,0-1.61-2,3.64,3.64,0,0,0-2.26-.73,3.81,3.81,0,0,0-2.36.73,5.57,5.57,0,0,0-1.6,2,10.25,10.25,0,0,0-.92,2.88,20.05,20.05,0,0,0-.28,3.44,21,21,0,0,0,.28,3.57,10.12,10.12,0,0,0,.9,2.86,5.23,5.23,0,0,0,1.59,1.92,4,4,0,0,0,2.39.71,3.89,3.89,0,0,0,2.38-.72,5.32,5.32,0,0,0,1.59-2,10.25,10.25,0,0,0,.89-2.88A22.61,22.61,0,0,0,169.57,72.17Z"/><path class="cls-2" d="M191.64,63.8h-5.79V82.88h-2.7V63.8h-5.76V61.49h14.46Z"/><path class="cls-2" d="M210,82.88V72.68h-9.51v10.2h-2.64V61.46h2.67v9.06H210V61.46h2.61V82.88Z"/><path class="cls-2" d="M231.61,63.68h-8.19V70.4h6.78l-.36,2.25h-6.42v7.92H232l-.33,2.31H220.84V61.46l11.22,0Z"/><path class="cls-2" d="M250.09,82.88l-6.33-10h-2.22v10h-2.7V61.49h2.67v9h2.16l6.54-9.24,2.22,1.38-6.63,8.91,7.59,11.31Z"/><path class="cls-3" d="M265.67,2.29h34.06a5.47,5.47,0,0,1,5.47,5.47V77.41a5.47,5.47,0,0,1-5.47,5.47H265.67a0,0,0,0,1,0,0V2.29A0,0,0,0,1,265.67,2.29Z"/><path class="cls-4" d="M292.91,65.13h-15V59.22a6.06,6.06,0,0,1,.65-2.9,4.45,4.45,0,0,1,1.79-1.83,5.4,5.4,0,0,1,2.64-.63,5.25,5.25,0,0,1,2.63.64,4.5,4.5,0,0,1,1.78,1.86,6.32,6.32,0,0,1,.63,2.94v3.77h-2.54V59.82a3.19,3.19,0,0,0-.31-1.51,2.15,2.15,0,0,0-.89-.9,3.08,3.08,0,0,0-2.61,0,2.1,2.1,0,0,0-.87.9,3.39,3.39,0,0,0-.31,1.52V62h12.38Z"/><path class="cls-4" d="M292.91,49.74h-15V43.83a6.47,6.47,0,0,1,.61-2.9,4.25,4.25,0,0,1,1.7-1.83,5.12,5.12,0,0,1,2.59-.63,4.89,4.89,0,0,1,2.56.64A4.2,4.2,0,0,1,287,41a6.88,6.88,0,0,1,.57,2.94v4h-2.55V44.42a4.06,4.06,0,0,0-.24-1.5,1.87,1.87,0,0,0-.75-.9,2.43,2.43,0,0,0-1.23-.29,2.55,2.55,0,0,0-1.26.29,1.92,1.92,0,0,0-.78.9,3.73,3.73,0,0,0-.27,1.52v2.13h12.38Zm-6.81-8.09,6.81-3.72v3.5l-6.81,3.64Z"/><path class="cls-4" d="M285.43,20.42a8.68,8.68,0,0,1,4.17.92,6.56,6.56,0,0,1,2.62,2.52,7.12,7.12,0,0,1,.9,3.57,7,7,0,0,1-.91,3.58,6.45,6.45,0,0,1-2.62,2.5,9.79,9.79,0,0,1-8.33,0,6.45,6.45,0,0,1-2.62-2.5,7.55,7.55,0,0,1,0-7.15,6.5,6.5,0,0,1,2.62-2.52A8.68,8.68,0,0,1,285.43,20.42Zm0,3.2a6.66,6.66,0,0,0-2.68.48,3.66,3.66,0,0,0-1.65,1.32,3.87,3.87,0,0,0,0,4,3.74,3.74,0,0,0,1.65,1.33,6.84,6.84,0,0,0,2.68.47,6.75,6.75,0,0,0,2.67-.47,3.72,3.72,0,0,0,1.66-1.33,3.57,3.57,0,0,0-1.66-5.33A6.57,6.57,0,0,0,285.43,23.62Z"/></svg>
